<mxfile host="Electron" modified="2023-05-30T17:02:47.935Z" agent="Mozilla/5.0 (Macintosh; Intel Mac OS X 10_15_7) AppleWebKit/537.36 (KHTML, like Gecko) draw.io/21.2.1 Chrome/112.0.5615.87 Electron/24.1.2 Safari/537.36" etag="h3Pum4T4-rnygDh_Qzpj" version="21.2.1" type="device">
  <diagram name="Page-1" id="H1nZVYqxkzLZFgEqRADx">
    <mxGraphModel dx="1320" dy="6595" grid="0" gridSize="10" guides="1" tooltips="1" connect="1" arrows="1" fold="1" page="1" pageScale="1" pageWidth="850" pageHeight="1100" math="0" shadow="0">
      <root>
        <mxCell id="0" />
        <mxCell id="1" parent="0" />
        <mxCell id="AsBp8XiL8Dx4Y6rQVwFH-9757" value="R, W: 146, H: 135, ORDER: 18, GC: {29, 30, 28, 1, 34, 27, 4, 21, 32, 13, 8, 5, 3, 35, 23, 33, 78, 68} " style="text;html=1;strokeColor=none;fillColor=none;align=center;verticalAlign=middle;whiteSpace=wrap;rounded=0;fontSize=32;" parent="1" vertex="1">
          <mxGeometry x="50" width="1460" height="30" as="geometry" />
        </mxCell>
        <mxCell id="SFHA7BVC_VP3I74WH4uw-636" value="R, W: 146, H: 141, ORDER: 20, GC: {59, 34, 24, 29, 19, 5, 25, 9, 12, 22, 2, 10, 16, 14, 6, 26, 20, 82, 18, 64} " style="text;html=1;strokeColor=none;fillColor=none;align=center;verticalAlign=middle;whiteSpace=wrap;rounded=0;fontSize=32;" parent="1" vertex="1">
          <mxGeometry x="50" y="1540" width="1460" height="30" as="geometry" />
        </mxCell>
        <mxCell id="SFHA7BVC_VP3I74WH4uw-657" value="R, W: 146, H: 99, ORDER: 20, GC: {45, 36, 24, 18, 23, 13, 5, 17, 7, 28, 20, 9, 19, 8, 3, 14, 11, 48, 54, 44} " style="text;html=1;strokeColor=none;fillColor=none;align=center;verticalAlign=middle;whiteSpace=wrap;rounded=0;fontSize=32;" parent="1" vertex="1">
          <mxGeometry x="100" y="3130" width="1460" height="30" as="geometry" />
        </mxCell>
        <mxCell id="SFHA7BVC_VP3I74WH4uw-678" value="R, W: 146, H: 140, ORDER: 20, GC: {52, 48, 46, 2, 44, 21, 29, 35, 17, 18, 12, 8, 4, 20, 13, 16, 53, 7, 50, 43} " style="text;html=1;strokeColor=none;fillColor=none;align=center;verticalAlign=middle;whiteSpace=wrap;rounded=0;fontSize=32;" parent="1" vertex="1">
          <mxGeometry x="80" y="4350" width="1460" height="30" as="geometry" />
        </mxCell>
        <mxCell id="SFHA7BVC_VP3I74WH4uw-699" value="R, W: 146, H: 99, ORDER: 21, GC: {44, 20, 16, 28, 4, 12, 24, 15, 23, 7, 8, 6, 1, 5, 27, 29, 22, 49, 55, 13, 42} " style="text;html=1;strokeColor=none;fillColor=none;align=center;verticalAlign=middle;whiteSpace=wrap;rounded=0;fontSize=32;" parent="1" vertex="1">
          <mxGeometry x="80" y="5920" width="1460" height="30" as="geometry" />
        </mxCell>
        <mxCell id="SFHA7BVC_VP3I74WH4uw-721" value="R, W: 146, H: 120, ORDER: 22, GC: {29, 24, 13, 15, 11, 2, 23, 9, 8, 42, 31, 12, 30, 5, 39, 34, 25, 18, 48, 57, 16, 41} " style="text;html=1;strokeColor=none;fillColor=none;align=center;verticalAlign=middle;whiteSpace=wrap;rounded=0;fontSize=32;fontFamily=CMU Serif;strokeWidth=2;" parent="1" vertex="1">
          <mxGeometry x="120" y="7090" width="1460" height="30" as="geometry" />
        </mxCell>
        <mxCell id="SFHA7BVC_VP3I74WH4uw-744" value="R, W: 146, H: 120, ORDER: 22, GC: {34, 39, 29, 5, 31, 42, 8, 23, 12, 30, 24, 13, 15, 11, 2, 9, 25, 18, 48, 57, 16, 41} " style="text;html=1;strokeColor=none;fillColor=none;align=center;verticalAlign=middle;whiteSpace=wrap;rounded=0;fontSize=32;fontFamily=CMU Serif;strokeWidth=2;" parent="1" vertex="1">
          <mxGeometry x="110" y="8420" width="1460" height="30" as="geometry" />
        </mxCell>
        <mxCell id="SFHA7BVC_VP3I74WH4uw-767" value="R, W: 146, H: 120, ORDER: 22, GC: {42, 39, 34, 31, 8, 23, 29, 5, 13, 11, 2, 25, 15, 24, 30, 12, 18, 9, 57, 16, 41, 48} " style="text;html=1;strokeColor=none;fillColor=none;align=center;verticalAlign=middle;whiteSpace=wrap;rounded=0;fontSize=32;fontFamily=CMU Serif;strokeWidth=2;" parent="1" vertex="1">
          <mxGeometry x="120" y="9820" width="1460" height="30" as="geometry" />
        </mxCell>
        <mxCell id="SFHA7BVC_VP3I74WH4uw-790" value="R, W: 146, H: 126, ORDER: 22, GC: {40, 28, 20, 23, 17, 3, 19, 9, 35, 14, 12, 33, 7, 2, 45, 42, 26, 53, 6, 47, 1, 46} " style="text;html=1;strokeColor=none;fillColor=none;align=center;verticalAlign=middle;whiteSpace=wrap;rounded=0;fontSize=32;" parent="1" vertex="1">
          <mxGeometry x="70" y="11370" width="1460" height="30" as="geometry" />
        </mxCell>
        <mxCell id="SFHA7BVC_VP3I74WH4uw-813" value="" style="group;flipV=1;" parent="1" vertex="1" connectable="0">
          <mxGeometry x="50" y="50" width="1460" height="1350" as="geometry" />
        </mxCell>
        <mxCell id="761dnnyQ54j-Cl0NHfQN-9758" value="29" style="rounded=0;whiteSpace=wrap;html=1;fontSize=32;" parent="SFHA7BVC_VP3I74WH4uw-813" vertex="1">
          <mxGeometry y="1060" width="290" height="290" as="geometry" />
        </mxCell>
        <mxCell id="761dnnyQ54j-Cl0NHfQN-9759" value="30" style="rounded=0;whiteSpace=wrap;html=1;fontSize=32;" parent="SFHA7BVC_VP3I74WH4uw-813" vertex="1">
          <mxGeometry x="290" y="1050" width="300" height="300" as="geometry" />
        </mxCell>
        <mxCell id="761dnnyQ54j-Cl0NHfQN-9760" value="28" style="rounded=0;whiteSpace=wrap;html=1;fontSize=32;" parent="SFHA7BVC_VP3I74WH4uw-813" vertex="1">
          <mxGeometry y="780" width="280" height="280" as="geometry" />
        </mxCell>
        <mxCell id="761dnnyQ54j-Cl0NHfQN-9761" value="1" style="rounded=0;whiteSpace=wrap;html=1;fontSize=32;" parent="SFHA7BVC_VP3I74WH4uw-813" vertex="1">
          <mxGeometry x="280" y="1050" width="10" height="10" as="geometry" />
        </mxCell>
        <mxCell id="761dnnyQ54j-Cl0NHfQN-9762" value="34" style="rounded=0;whiteSpace=wrap;html=1;fontSize=32;" parent="SFHA7BVC_VP3I74WH4uw-813" vertex="1">
          <mxGeometry x="590" y="1010" width="340" height="340" as="geometry" />
        </mxCell>
        <mxCell id="761dnnyQ54j-Cl0NHfQN-9763" value="27" style="rounded=0;whiteSpace=wrap;html=1;fontSize=32;" parent="SFHA7BVC_VP3I74WH4uw-813" vertex="1">
          <mxGeometry x="280" y="780" width="270" height="270" as="geometry" />
        </mxCell>
        <mxCell id="761dnnyQ54j-Cl0NHfQN-9764" value="4" style="rounded=0;whiteSpace=wrap;html=1;fontSize=32;" parent="SFHA7BVC_VP3I74WH4uw-813" vertex="1">
          <mxGeometry x="550" y="1010" width="40" height="40" as="geometry" />
        </mxCell>
        <mxCell id="761dnnyQ54j-Cl0NHfQN-9765" value="21" style="rounded=0;whiteSpace=wrap;html=1;fontSize=32;" parent="SFHA7BVC_VP3I74WH4uw-813" vertex="1">
          <mxGeometry x="930" y="1140" width="210" height="210" as="geometry" />
        </mxCell>
        <mxCell id="761dnnyQ54j-Cl0NHfQN-9766" value="32" style="rounded=0;whiteSpace=wrap;html=1;fontSize=32;" parent="SFHA7BVC_VP3I74WH4uw-813" vertex="1">
          <mxGeometry x="1140" y="1030" width="320" height="320" as="geometry" />
        </mxCell>
        <mxCell id="761dnnyQ54j-Cl0NHfQN-9767" value="13" style="rounded=0;whiteSpace=wrap;html=1;fontSize=32;" parent="SFHA7BVC_VP3I74WH4uw-813" vertex="1">
          <mxGeometry x="930" y="1010" width="130" height="130" as="geometry" />
        </mxCell>
        <mxCell id="761dnnyQ54j-Cl0NHfQN-9768" value="8" style="rounded=0;whiteSpace=wrap;html=1;fontSize=32;" parent="SFHA7BVC_VP3I74WH4uw-813" vertex="1">
          <mxGeometry x="1060" y="1060" width="80" height="80" as="geometry" />
        </mxCell>
        <mxCell id="761dnnyQ54j-Cl0NHfQN-9769" value="5" style="rounded=0;whiteSpace=wrap;html=1;fontSize=32;" parent="SFHA7BVC_VP3I74WH4uw-813" vertex="1">
          <mxGeometry x="1060" y="1010" width="50" height="50" as="geometry" />
        </mxCell>
        <mxCell id="761dnnyQ54j-Cl0NHfQN-9770" value="3" style="rounded=0;whiteSpace=wrap;html=1;fontSize=32;" parent="SFHA7BVC_VP3I74WH4uw-813" vertex="1">
          <mxGeometry x="1110" y="1030" width="30" height="30" as="geometry" />
        </mxCell>
        <mxCell id="761dnnyQ54j-Cl0NHfQN-9771" value="35" style="rounded=0;whiteSpace=wrap;html=1;fontSize=32;" parent="SFHA7BVC_VP3I74WH4uw-813" vertex="1">
          <mxGeometry x="1110" y="680" width="350" height="350" as="geometry" />
        </mxCell>
        <mxCell id="761dnnyQ54j-Cl0NHfQN-9772" value="23" style="rounded=0;whiteSpace=wrap;html=1;fontSize=32;" parent="SFHA7BVC_VP3I74WH4uw-813" vertex="1">
          <mxGeometry x="550" y="780" width="230" height="230" as="geometry" />
        </mxCell>
        <mxCell id="761dnnyQ54j-Cl0NHfQN-9773" value="33" style="rounded=0;whiteSpace=wrap;html=1;fontSize=32;" parent="SFHA7BVC_VP3I74WH4uw-813" vertex="1">
          <mxGeometry x="780" y="680" width="330" height="330" as="geometry" />
        </mxCell>
        <mxCell id="761dnnyQ54j-Cl0NHfQN-9774" value="78" style="rounded=0;whiteSpace=wrap;html=1;fontSize=32;" parent="SFHA7BVC_VP3I74WH4uw-813" vertex="1">
          <mxGeometry width="780" height="780" as="geometry" />
        </mxCell>
        <mxCell id="761dnnyQ54j-Cl0NHfQN-9775" value="68" style="rounded=0;whiteSpace=wrap;html=1;fontSize=32;" parent="SFHA7BVC_VP3I74WH4uw-813" vertex="1">
          <mxGeometry x="780" width="680" height="680" as="geometry" />
        </mxCell>
        <mxCell id="SFHA7BVC_VP3I74WH4uw-814" value="" style="group;flipV=1;" parent="1" vertex="1" connectable="0">
          <mxGeometry x="50" y="1590" width="1460" height="1410" as="geometry" />
        </mxCell>
        <mxCell id="SFHA7BVC_VP3I74WH4uw-637" value="59" style="rounded=0;whiteSpace=wrap;html=1;fontSize=32;" parent="SFHA7BVC_VP3I74WH4uw-814" vertex="1">
          <mxGeometry y="820" width="590" height="590" as="geometry" />
        </mxCell>
        <mxCell id="SFHA7BVC_VP3I74WH4uw-638" value="34" style="rounded=0;whiteSpace=wrap;html=1;fontSize=32;" parent="SFHA7BVC_VP3I74WH4uw-814" vertex="1">
          <mxGeometry x="590" y="1070" width="340" height="340" as="geometry" />
        </mxCell>
        <mxCell id="SFHA7BVC_VP3I74WH4uw-639" value="24" style="rounded=0;whiteSpace=wrap;html=1;fontSize=32;" parent="SFHA7BVC_VP3I74WH4uw-814" vertex="1">
          <mxGeometry x="930" y="1170" width="240" height="240" as="geometry" />
        </mxCell>
        <mxCell id="SFHA7BVC_VP3I74WH4uw-640" value="29" style="rounded=0;whiteSpace=wrap;html=1;fontSize=32;" parent="SFHA7BVC_VP3I74WH4uw-814" vertex="1">
          <mxGeometry x="1170" y="1120" width="290" height="290" as="geometry" />
        </mxCell>
        <mxCell id="SFHA7BVC_VP3I74WH4uw-641" value="19" style="rounded=0;whiteSpace=wrap;html=1;fontSize=32;" parent="SFHA7BVC_VP3I74WH4uw-814" vertex="1">
          <mxGeometry x="930" y="980" width="190" height="190" as="geometry" />
        </mxCell>
        <mxCell id="SFHA7BVC_VP3I74WH4uw-642" value="5" style="rounded=0;whiteSpace=wrap;html=1;fontSize=32;" parent="SFHA7BVC_VP3I74WH4uw-814" vertex="1">
          <mxGeometry x="1120" y="1120" width="50" height="50" as="geometry" />
        </mxCell>
        <mxCell id="SFHA7BVC_VP3I74WH4uw-643" value="25" style="rounded=0;whiteSpace=wrap;html=1;fontSize=32;" parent="SFHA7BVC_VP3I74WH4uw-814" vertex="1">
          <mxGeometry x="590" y="820" width="250" height="250" as="geometry" />
        </mxCell>
        <mxCell id="SFHA7BVC_VP3I74WH4uw-644" value="9" style="rounded=0;whiteSpace=wrap;html=1;fontSize=32;" parent="SFHA7BVC_VP3I74WH4uw-814" vertex="1">
          <mxGeometry x="840" y="980" width="90" height="90" as="geometry" />
        </mxCell>
        <mxCell id="SFHA7BVC_VP3I74WH4uw-645" value="12" style="rounded=0;whiteSpace=wrap;html=1;fontSize=32;" parent="SFHA7BVC_VP3I74WH4uw-814" vertex="1">
          <mxGeometry x="1120" y="1000" width="120" height="120" as="geometry" />
        </mxCell>
        <mxCell id="SFHA7BVC_VP3I74WH4uw-646" value="22" style="rounded=0;whiteSpace=wrap;html=1;fontSize=32;" parent="SFHA7BVC_VP3I74WH4uw-814" vertex="1">
          <mxGeometry x="1240" y="900" width="220" height="220" as="geometry" />
        </mxCell>
        <mxCell id="SFHA7BVC_VP3I74WH4uw-647" value="2" style="rounded=0;whiteSpace=wrap;html=1;fontSize=32;" parent="SFHA7BVC_VP3I74WH4uw-814" vertex="1">
          <mxGeometry x="1120" y="980" width="20" height="20" as="geometry" />
        </mxCell>
        <mxCell id="SFHA7BVC_VP3I74WH4uw-648" value="10" style="rounded=0;whiteSpace=wrap;html=1;fontSize=32;" parent="SFHA7BVC_VP3I74WH4uw-814" vertex="1">
          <mxGeometry x="1140" y="900" width="100" height="100" as="geometry" />
        </mxCell>
        <mxCell id="SFHA7BVC_VP3I74WH4uw-649" value="16" style="rounded=0;whiteSpace=wrap;html=1;fontSize=32;" parent="SFHA7BVC_VP3I74WH4uw-814" vertex="1">
          <mxGeometry x="840" y="820" width="160" height="160" as="geometry" />
        </mxCell>
        <mxCell id="SFHA7BVC_VP3I74WH4uw-650" value="14" style="rounded=0;whiteSpace=wrap;html=1;fontSize=32;" parent="SFHA7BVC_VP3I74WH4uw-814" vertex="1">
          <mxGeometry x="1000" y="840" width="140" height="140" as="geometry" />
        </mxCell>
        <mxCell id="SFHA7BVC_VP3I74WH4uw-651" value="6" style="rounded=0;whiteSpace=wrap;html=1;fontSize=32;" parent="SFHA7BVC_VP3I74WH4uw-814" vertex="1">
          <mxGeometry x="1140" y="840" width="60" height="60" as="geometry" />
        </mxCell>
        <mxCell id="SFHA7BVC_VP3I74WH4uw-652" value="26" style="rounded=0;whiteSpace=wrap;html=1;fontSize=32;" parent="SFHA7BVC_VP3I74WH4uw-814" vertex="1">
          <mxGeometry x="1200" y="640" width="260" height="260" as="geometry" />
        </mxCell>
        <mxCell id="SFHA7BVC_VP3I74WH4uw-653" value="20" style="rounded=0;whiteSpace=wrap;html=1;fontSize=32;" parent="SFHA7BVC_VP3I74WH4uw-814" vertex="1">
          <mxGeometry x="1000" y="640" width="200" height="200" as="geometry" />
        </mxCell>
        <mxCell id="SFHA7BVC_VP3I74WH4uw-654" value="82" style="rounded=0;whiteSpace=wrap;html=1;fontSize=32;" parent="SFHA7BVC_VP3I74WH4uw-814" vertex="1">
          <mxGeometry width="820" height="820" as="geometry" />
        </mxCell>
        <mxCell id="SFHA7BVC_VP3I74WH4uw-655" value="18" style="rounded=0;whiteSpace=wrap;html=1;fontSize=32;" parent="SFHA7BVC_VP3I74WH4uw-814" vertex="1">
          <mxGeometry x="820" y="640" width="180" height="180" as="geometry" />
        </mxCell>
        <mxCell id="SFHA7BVC_VP3I74WH4uw-656" value="64" style="rounded=0;whiteSpace=wrap;html=1;fontSize=32;" parent="SFHA7BVC_VP3I74WH4uw-814" vertex="1">
          <mxGeometry x="820" width="640" height="640" as="geometry" />
        </mxCell>
        <mxCell id="SFHA7BVC_VP3I74WH4uw-815" value="" style="group;flipV=1;" parent="1" vertex="1" connectable="0">
          <mxGeometry x="100" y="3180" width="1460" height="990" as="geometry" />
        </mxCell>
        <mxCell id="SFHA7BVC_VP3I74WH4uw-658" value="45" style="rounded=0;whiteSpace=wrap;html=1;fontSize=32;" parent="SFHA7BVC_VP3I74WH4uw-815" vertex="1">
          <mxGeometry y="540" width="450" height="450" as="geometry" />
        </mxCell>
        <mxCell id="SFHA7BVC_VP3I74WH4uw-659" value="36" style="rounded=0;whiteSpace=wrap;html=1;fontSize=32;" parent="SFHA7BVC_VP3I74WH4uw-815" vertex="1">
          <mxGeometry x="450" y="630" width="360" height="360" as="geometry" />
        </mxCell>
        <mxCell id="SFHA7BVC_VP3I74WH4uw-660" value="24" style="rounded=0;whiteSpace=wrap;html=1;fontSize=32;" parent="SFHA7BVC_VP3I74WH4uw-815" vertex="1">
          <mxGeometry x="810" y="750" width="240" height="240" as="geometry" />
        </mxCell>
        <mxCell id="SFHA7BVC_VP3I74WH4uw-661" value="18" style="rounded=0;whiteSpace=wrap;html=1;fontSize=32;" parent="SFHA7BVC_VP3I74WH4uw-815" vertex="1">
          <mxGeometry x="1050" y="810" width="180" height="180" as="geometry" />
        </mxCell>
        <mxCell id="SFHA7BVC_VP3I74WH4uw-662" value="23" style="rounded=0;whiteSpace=wrap;html=1;fontSize=32;" parent="SFHA7BVC_VP3I74WH4uw-815" vertex="1">
          <mxGeometry x="1230" y="760" width="230" height="230" as="geometry" />
        </mxCell>
        <mxCell id="SFHA7BVC_VP3I74WH4uw-663" value="13" style="rounded=0;whiteSpace=wrap;html=1;fontSize=32;" parent="SFHA7BVC_VP3I74WH4uw-815" vertex="1">
          <mxGeometry x="1050" y="680" width="130" height="130" as="geometry" />
        </mxCell>
        <mxCell id="SFHA7BVC_VP3I74WH4uw-664" value="5" style="rounded=0;whiteSpace=wrap;html=1;fontSize=32;" parent="SFHA7BVC_VP3I74WH4uw-815" vertex="1">
          <mxGeometry x="1180" y="760" width="50" height="50" as="geometry" />
        </mxCell>
        <mxCell id="SFHA7BVC_VP3I74WH4uw-665" value="17" style="rounded=0;whiteSpace=wrap;html=1;fontSize=32;" parent="SFHA7BVC_VP3I74WH4uw-815" vertex="1">
          <mxGeometry x="810" y="580" width="170" height="170" as="geometry" />
        </mxCell>
        <mxCell id="SFHA7BVC_VP3I74WH4uw-666" value="7" style="rounded=0;whiteSpace=wrap;html=1;fontSize=32;" parent="SFHA7BVC_VP3I74WH4uw-815" vertex="1">
          <mxGeometry x="980" y="680" width="70" height="70" as="geometry" />
        </mxCell>
        <mxCell id="SFHA7BVC_VP3I74WH4uw-667" value="28" style="rounded=0;whiteSpace=wrap;html=1;fontSize=32;" parent="SFHA7BVC_VP3I74WH4uw-815" vertex="1">
          <mxGeometry x="1180" y="480" width="280" height="280" as="geometry" />
        </mxCell>
        <mxCell id="SFHA7BVC_VP3I74WH4uw-668" value="20" style="rounded=0;whiteSpace=wrap;html=1;fontSize=32;" parent="SFHA7BVC_VP3I74WH4uw-815" vertex="1">
          <mxGeometry x="980" y="480" width="200" height="200" as="geometry" />
        </mxCell>
        <mxCell id="SFHA7BVC_VP3I74WH4uw-669" value="9" style="rounded=0;whiteSpace=wrap;html=1;fontSize=32;" parent="SFHA7BVC_VP3I74WH4uw-815" vertex="1">
          <mxGeometry x="450" y="540" width="90" height="90" as="geometry" />
        </mxCell>
        <mxCell id="SFHA7BVC_VP3I74WH4uw-670" value="19" style="rounded=0;whiteSpace=wrap;html=1;fontSize=32;" parent="SFHA7BVC_VP3I74WH4uw-815" vertex="1">
          <mxGeometry x="540" y="440" width="190" height="190" as="geometry" />
        </mxCell>
        <mxCell id="SFHA7BVC_VP3I74WH4uw-671" value="8" style="rounded=0;whiteSpace=wrap;html=1;fontSize=32;" parent="SFHA7BVC_VP3I74WH4uw-815" vertex="1">
          <mxGeometry x="730" y="550" width="80" height="80" as="geometry" />
        </mxCell>
        <mxCell id="SFHA7BVC_VP3I74WH4uw-672" value="3" style="rounded=0;whiteSpace=wrap;html=1;fontSize=32;" parent="SFHA7BVC_VP3I74WH4uw-815" vertex="1">
          <mxGeometry x="810" y="550" width="30" height="30" as="geometry" />
        </mxCell>
        <mxCell id="SFHA7BVC_VP3I74WH4uw-673" value="14" style="rounded=0;whiteSpace=wrap;html=1;fontSize=32;" parent="SFHA7BVC_VP3I74WH4uw-815" vertex="1">
          <mxGeometry x="840" y="440" width="140" height="140" as="geometry" />
        </mxCell>
        <mxCell id="SFHA7BVC_VP3I74WH4uw-674" value="11" style="rounded=0;whiteSpace=wrap;html=1;fontSize=32;" parent="SFHA7BVC_VP3I74WH4uw-815" vertex="1">
          <mxGeometry x="730" y="440" width="110" height="110" as="geometry" />
        </mxCell>
        <mxCell id="SFHA7BVC_VP3I74WH4uw-675" value="48" style="rounded=0;whiteSpace=wrap;html=1;fontSize=32;" parent="SFHA7BVC_VP3I74WH4uw-815" vertex="1">
          <mxGeometry x="980" width="480" height="480" as="geometry" />
        </mxCell>
        <mxCell id="SFHA7BVC_VP3I74WH4uw-676" value="54" style="rounded=0;whiteSpace=wrap;html=1;fontSize=32;" parent="SFHA7BVC_VP3I74WH4uw-815" vertex="1">
          <mxGeometry width="540" height="540" as="geometry" />
        </mxCell>
        <mxCell id="SFHA7BVC_VP3I74WH4uw-677" value="44" style="rounded=0;whiteSpace=wrap;html=1;fontSize=32;" parent="SFHA7BVC_VP3I74WH4uw-815" vertex="1">
          <mxGeometry x="540" width="440" height="440" as="geometry" />
        </mxCell>
        <mxCell id="SFHA7BVC_VP3I74WH4uw-816" value="" style="group;flipV=1;" parent="1" vertex="1" connectable="0">
          <mxGeometry x="80" y="4400" width="1460" height="1400" as="geometry" />
        </mxCell>
        <mxCell id="SFHA7BVC_VP3I74WH4uw-679" value="52" style="rounded=0;whiteSpace=wrap;html=1;fontSize=32;" parent="SFHA7BVC_VP3I74WH4uw-816" vertex="1">
          <mxGeometry y="880" width="520" height="520" as="geometry" />
        </mxCell>
        <mxCell id="SFHA7BVC_VP3I74WH4uw-680" value="48" style="rounded=0;whiteSpace=wrap;html=1;fontSize=32;" parent="SFHA7BVC_VP3I74WH4uw-816" vertex="1">
          <mxGeometry x="520" y="920" width="480" height="480" as="geometry" />
        </mxCell>
        <mxCell id="SFHA7BVC_VP3I74WH4uw-681" value="46" style="rounded=0;whiteSpace=wrap;html=1;fontSize=32;" parent="SFHA7BVC_VP3I74WH4uw-816" vertex="1">
          <mxGeometry x="1000" y="940" width="460" height="460" as="geometry" />
        </mxCell>
        <mxCell id="SFHA7BVC_VP3I74WH4uw-682" value="2" style="rounded=0;whiteSpace=wrap;html=1;fontSize=32;" parent="SFHA7BVC_VP3I74WH4uw-816" vertex="1">
          <mxGeometry x="1000" y="920" width="20" height="20" as="geometry" />
        </mxCell>
        <mxCell id="SFHA7BVC_VP3I74WH4uw-683" value="44" style="rounded=0;whiteSpace=wrap;html=1;fontSize=32;" parent="SFHA7BVC_VP3I74WH4uw-816" vertex="1">
          <mxGeometry x="1020" y="500" width="440" height="440" as="geometry" />
        </mxCell>
        <mxCell id="SFHA7BVC_VP3I74WH4uw-684" value="21" style="rounded=0;whiteSpace=wrap;html=1;fontSize=32;" parent="SFHA7BVC_VP3I74WH4uw-816" vertex="1">
          <mxGeometry x="520" y="710" width="210" height="210" as="geometry" />
        </mxCell>
        <mxCell id="SFHA7BVC_VP3I74WH4uw-685" value="29" style="rounded=0;whiteSpace=wrap;html=1;fontSize=32;" parent="SFHA7BVC_VP3I74WH4uw-816" vertex="1">
          <mxGeometry x="730" y="630" width="290" height="290" as="geometry" />
        </mxCell>
        <mxCell id="SFHA7BVC_VP3I74WH4uw-686" value="35" style="rounded=0;whiteSpace=wrap;html=1;fontSize=32;" parent="SFHA7BVC_VP3I74WH4uw-816" vertex="1">
          <mxGeometry y="530" width="350" height="350" as="geometry" />
        </mxCell>
        <mxCell id="SFHA7BVC_VP3I74WH4uw-687" value="17" style="rounded=0;whiteSpace=wrap;html=1;fontSize=32;" parent="SFHA7BVC_VP3I74WH4uw-816" vertex="1">
          <mxGeometry x="350" y="710" width="170" height="170" as="geometry" />
        </mxCell>
        <mxCell id="SFHA7BVC_VP3I74WH4uw-688" value="18" style="rounded=0;whiteSpace=wrap;html=1;fontSize=32;" parent="SFHA7BVC_VP3I74WH4uw-816" vertex="1">
          <mxGeometry x="350" y="530" width="180" height="180" as="geometry" />
        </mxCell>
        <mxCell id="SFHA7BVC_VP3I74WH4uw-689" value="12" style="rounded=0;whiteSpace=wrap;html=1;fontSize=32;" parent="SFHA7BVC_VP3I74WH4uw-816" vertex="1">
          <mxGeometry x="530" y="590" width="120" height="120" as="geometry" />
        </mxCell>
        <mxCell id="SFHA7BVC_VP3I74WH4uw-690" value="8" style="rounded=0;whiteSpace=wrap;html=1;fontSize=32;" parent="SFHA7BVC_VP3I74WH4uw-816" vertex="1">
          <mxGeometry x="650" y="630" width="80" height="80" as="geometry" />
        </mxCell>
        <mxCell id="SFHA7BVC_VP3I74WH4uw-691" value="4" style="rounded=0;whiteSpace=wrap;html=1;fontSize=32;" parent="SFHA7BVC_VP3I74WH4uw-816" vertex="1">
          <mxGeometry x="650" y="590" width="40" height="40" as="geometry" />
        </mxCell>
        <mxCell id="SFHA7BVC_VP3I74WH4uw-692" value="20" style="rounded=0;whiteSpace=wrap;html=1;fontSize=32;" parent="SFHA7BVC_VP3I74WH4uw-816" vertex="1">
          <mxGeometry x="690" y="430" width="200" height="200" as="geometry" />
        </mxCell>
        <mxCell id="SFHA7BVC_VP3I74WH4uw-693" value="13" style="rounded=0;whiteSpace=wrap;html=1;fontSize=32;" parent="SFHA7BVC_VP3I74WH4uw-816" vertex="1">
          <mxGeometry x="890" y="500" width="130" height="130" as="geometry" />
        </mxCell>
        <mxCell id="SFHA7BVC_VP3I74WH4uw-694" value="16" style="rounded=0;whiteSpace=wrap;html=1;fontSize=32;" parent="SFHA7BVC_VP3I74WH4uw-816" vertex="1">
          <mxGeometry x="530" y="430" width="160" height="160" as="geometry" />
        </mxCell>
        <mxCell id="SFHA7BVC_VP3I74WH4uw-695" value="53" style="rounded=0;whiteSpace=wrap;html=1;fontSize=32;" parent="SFHA7BVC_VP3I74WH4uw-816" vertex="1">
          <mxGeometry width="530" height="530" as="geometry" />
        </mxCell>
        <mxCell id="SFHA7BVC_VP3I74WH4uw-696" value="7" style="rounded=0;whiteSpace=wrap;html=1;fontSize=32;" parent="SFHA7BVC_VP3I74WH4uw-816" vertex="1">
          <mxGeometry x="890" y="430" width="70" height="70" as="geometry" />
        </mxCell>
        <mxCell id="SFHA7BVC_VP3I74WH4uw-697" value="50" style="rounded=0;whiteSpace=wrap;html=1;fontSize=32;" parent="SFHA7BVC_VP3I74WH4uw-816" vertex="1">
          <mxGeometry x="960" width="500" height="500" as="geometry" />
        </mxCell>
        <mxCell id="SFHA7BVC_VP3I74WH4uw-698" value="43" style="rounded=0;whiteSpace=wrap;html=1;fontSize=32;" parent="SFHA7BVC_VP3I74WH4uw-816" vertex="1">
          <mxGeometry x="530" width="430" height="430" as="geometry" />
        </mxCell>
        <mxCell id="SFHA7BVC_VP3I74WH4uw-817" value="" style="group;flipV=1;" parent="1" vertex="1" connectable="0">
          <mxGeometry x="80" y="5970" width="1460" height="990" as="geometry" />
        </mxCell>
        <mxCell id="SFHA7BVC_VP3I74WH4uw-700" value="44" style="rounded=0;whiteSpace=wrap;html=1;fontSize=32;" parent="SFHA7BVC_VP3I74WH4uw-817" vertex="1">
          <mxGeometry y="550" width="440" height="440" as="geometry" />
        </mxCell>
        <mxCell id="SFHA7BVC_VP3I74WH4uw-701" value="20" style="rounded=0;whiteSpace=wrap;html=1;fontSize=32;" parent="SFHA7BVC_VP3I74WH4uw-817" vertex="1">
          <mxGeometry x="440" y="790" width="200" height="200" as="geometry" />
        </mxCell>
        <mxCell id="SFHA7BVC_VP3I74WH4uw-702" value="16" style="rounded=0;whiteSpace=wrap;html=1;fontSize=32;" parent="SFHA7BVC_VP3I74WH4uw-817" vertex="1">
          <mxGeometry x="640" y="830" width="160" height="160" as="geometry" />
        </mxCell>
        <mxCell id="SFHA7BVC_VP3I74WH4uw-703" value="28" style="rounded=0;whiteSpace=wrap;html=1;fontSize=32;" parent="SFHA7BVC_VP3I74WH4uw-817" vertex="1">
          <mxGeometry x="800" y="710" width="280" height="280" as="geometry" />
        </mxCell>
        <mxCell id="SFHA7BVC_VP3I74WH4uw-704" value="4" style="rounded=0;whiteSpace=wrap;html=1;fontSize=32;" parent="SFHA7BVC_VP3I74WH4uw-817" vertex="1">
          <mxGeometry x="640" y="790" width="40" height="40" as="geometry" />
        </mxCell>
        <mxCell id="SFHA7BVC_VP3I74WH4uw-705" value="12" style="rounded=0;whiteSpace=wrap;html=1;fontSize=32;" parent="SFHA7BVC_VP3I74WH4uw-817" vertex="1">
          <mxGeometry x="680" y="710" width="120" height="120" as="geometry" />
        </mxCell>
        <mxCell id="SFHA7BVC_VP3I74WH4uw-706" value="24" style="rounded=0;whiteSpace=wrap;html=1;fontSize=32;" parent="SFHA7BVC_VP3I74WH4uw-817" vertex="1">
          <mxGeometry x="440" y="550" width="240" height="240" as="geometry" />
        </mxCell>
        <mxCell id="SFHA7BVC_VP3I74WH4uw-707" value="15" style="rounded=0;whiteSpace=wrap;html=1;fontSize=32;" parent="SFHA7BVC_VP3I74WH4uw-817" vertex="1">
          <mxGeometry x="1080" y="840" width="150" height="150" as="geometry" />
        </mxCell>
        <mxCell id="SFHA7BVC_VP3I74WH4uw-708" value="23" style="rounded=0;whiteSpace=wrap;html=1;fontSize=32;" parent="SFHA7BVC_VP3I74WH4uw-817" vertex="1">
          <mxGeometry x="1230" y="760" width="230" height="230" as="geometry" />
        </mxCell>
        <mxCell id="SFHA7BVC_VP3I74WH4uw-709" value="7" style="rounded=0;whiteSpace=wrap;html=1;fontSize=32;" parent="SFHA7BVC_VP3I74WH4uw-817" vertex="1">
          <mxGeometry x="1080" y="770" width="70" height="70" as="geometry" />
        </mxCell>
        <mxCell id="SFHA7BVC_VP3I74WH4uw-710" value="8" style="rounded=0;whiteSpace=wrap;html=1;fontSize=32;" parent="SFHA7BVC_VP3I74WH4uw-817" vertex="1">
          <mxGeometry x="1150" y="760" width="80" height="80" as="geometry" />
        </mxCell>
        <mxCell id="SFHA7BVC_VP3I74WH4uw-711" value="6" style="rounded=0;whiteSpace=wrap;html=1;fontSize=32;" parent="SFHA7BVC_VP3I74WH4uw-817" vertex="1">
          <mxGeometry x="1080" y="710" width="60" height="60" as="geometry" />
        </mxCell>
        <mxCell id="SFHA7BVC_VP3I74WH4uw-712" value="1" style="rounded=0;whiteSpace=wrap;html=1;fontSize=32;" parent="SFHA7BVC_VP3I74WH4uw-817" vertex="1">
          <mxGeometry x="1140" y="760" width="10" height="10" as="geometry" />
        </mxCell>
        <mxCell id="SFHA7BVC_VP3I74WH4uw-713" value="5" style="rounded=0;whiteSpace=wrap;html=1;fontSize=32;" parent="SFHA7BVC_VP3I74WH4uw-817" vertex="1">
          <mxGeometry x="1140" y="710" width="50" height="50" as="geometry" />
        </mxCell>
        <mxCell id="SFHA7BVC_VP3I74WH4uw-714" value="27" style="rounded=0;whiteSpace=wrap;html=1;fontSize=32;" parent="SFHA7BVC_VP3I74WH4uw-817" vertex="1">
          <mxGeometry x="1190" y="490" width="270" height="270" as="geometry" />
        </mxCell>
        <mxCell id="SFHA7BVC_VP3I74WH4uw-715" value="29" style="rounded=0;whiteSpace=wrap;html=1;fontSize=32;" parent="SFHA7BVC_VP3I74WH4uw-817" vertex="1">
          <mxGeometry x="680" y="420" width="290" height="290" as="geometry" />
        </mxCell>
        <mxCell id="SFHA7BVC_VP3I74WH4uw-716" value="22" style="rounded=0;whiteSpace=wrap;html=1;fontSize=32;" parent="SFHA7BVC_VP3I74WH4uw-817" vertex="1">
          <mxGeometry x="970" y="490" width="220" height="220" as="geometry" />
        </mxCell>
        <mxCell id="SFHA7BVC_VP3I74WH4uw-717" value="49" style="rounded=0;whiteSpace=wrap;html=1;fontSize=32;" parent="SFHA7BVC_VP3I74WH4uw-817" vertex="1">
          <mxGeometry x="970" width="490" height="490" as="geometry" />
        </mxCell>
        <mxCell id="SFHA7BVC_VP3I74WH4uw-718" value="55" style="rounded=0;whiteSpace=wrap;html=1;fontSize=32;" parent="SFHA7BVC_VP3I74WH4uw-817" vertex="1">
          <mxGeometry width="550" height="550" as="geometry" />
        </mxCell>
        <mxCell id="SFHA7BVC_VP3I74WH4uw-719" value="13" style="rounded=0;whiteSpace=wrap;html=1;fontSize=32;" parent="SFHA7BVC_VP3I74WH4uw-817" vertex="1">
          <mxGeometry x="550" y="420" width="130" height="130" as="geometry" />
        </mxCell>
        <mxCell id="SFHA7BVC_VP3I74WH4uw-720" value="42" style="rounded=0;whiteSpace=wrap;html=1;fontSize=32;" parent="SFHA7BVC_VP3I74WH4uw-817" vertex="1">
          <mxGeometry x="550" width="420" height="420" as="geometry" />
        </mxCell>
        <mxCell id="SFHA7BVC_VP3I74WH4uw-843" value="" style="group;flipV=1;flipH=1;fontFamily=CMU Serif;strokeWidth=2;" parent="1" vertex="1" connectable="0">
          <mxGeometry x="120" y="9870" width="1460" height="1200" as="geometry" />
        </mxCell>
        <mxCell id="SFHA7BVC_VP3I74WH4uw-768" value="42" style="rounded=0;whiteSpace=wrap;html=1;fontSize=32;fontFamily=CMU Serif;strokeWidth=2;" parent="SFHA7BVC_VP3I74WH4uw-843" vertex="1">
          <mxGeometry x="1040" y="780" width="420" height="420" as="geometry" />
        </mxCell>
        <mxCell id="SFHA7BVC_VP3I74WH4uw-769" value="39" style="rounded=0;whiteSpace=wrap;html=1;fontSize=32;fillColor=#ffe6cc;strokeColor=#d79b00;fontFamily=CMU Serif;strokeWidth=2;" parent="SFHA7BVC_VP3I74WH4uw-843" vertex="1">
          <mxGeometry x="650" y="810" width="390" height="390" as="geometry" />
        </mxCell>
        <mxCell id="SFHA7BVC_VP3I74WH4uw-770" value="34" style="rounded=0;whiteSpace=wrap;html=1;fontSize=32;fillColor=#f8cecc;strokeColor=#b85450;fontFamily=CMU Serif;strokeWidth=2;" parent="SFHA7BVC_VP3I74WH4uw-843" vertex="1">
          <mxGeometry x="310" y="860" width="340" height="340" as="geometry" />
        </mxCell>
        <mxCell id="SFHA7BVC_VP3I74WH4uw-771" value="31" style="rounded=0;whiteSpace=wrap;html=1;fontSize=32;fillColor=#fff2cc;strokeColor=#d6b656;fontFamily=CMU Serif;strokeWidth=2;" parent="SFHA7BVC_VP3I74WH4uw-843" vertex="1">
          <mxGeometry y="890" width="310" height="310" as="geometry" />
        </mxCell>
        <mxCell id="SFHA7BVC_VP3I74WH4uw-772" value="8" style="rounded=0;whiteSpace=wrap;html=1;fontSize=32;fillColor=#f8cecc;strokeColor=#b85450;fontFamily=CMU Serif;strokeWidth=2;" parent="SFHA7BVC_VP3I74WH4uw-843" vertex="1">
          <mxGeometry x="230" y="810" width="80" height="80" as="geometry" />
        </mxCell>
        <mxCell id="SFHA7BVC_VP3I74WH4uw-773" value="23" style="rounded=0;whiteSpace=wrap;html=1;fontSize=32;fillColor=#dae8fc;strokeColor=#6c8ebf;fontFamily=CMU Serif;strokeWidth=2;" parent="SFHA7BVC_VP3I74WH4uw-843" vertex="1">
          <mxGeometry y="660" width="230" height="230" as="geometry" />
        </mxCell>
        <mxCell id="SFHA7BVC_VP3I74WH4uw-774" value="29" style="rounded=0;whiteSpace=wrap;html=1;fontSize=32;fillColor=#dae8fc;strokeColor=#6c8ebf;fontFamily=CMU Serif;strokeWidth=2;" parent="SFHA7BVC_VP3I74WH4uw-843" vertex="1">
          <mxGeometry x="360" y="570" width="290" height="290" as="geometry" />
        </mxCell>
        <mxCell id="SFHA7BVC_VP3I74WH4uw-775" value="5" style="rounded=0;whiteSpace=wrap;html=1;fontSize=32;fillColor=#e1d5e7;strokeColor=#9673a6;fontFamily=CMU Serif;strokeWidth=2;" parent="SFHA7BVC_VP3I74WH4uw-843" vertex="1">
          <mxGeometry x="310" y="810" width="50" height="50" as="geometry" />
        </mxCell>
        <mxCell id="SFHA7BVC_VP3I74WH4uw-776" value="13" style="rounded=0;whiteSpace=wrap;html=1;fontSize=32;fillColor=#f8cecc;strokeColor=#b85450;fontFamily=CMU Serif;strokeWidth=2;" parent="SFHA7BVC_VP3I74WH4uw-843" vertex="1">
          <mxGeometry x="230" y="680" width="130" height="130" as="geometry" />
        </mxCell>
        <mxCell id="SFHA7BVC_VP3I74WH4uw-777" value="11" style="rounded=0;whiteSpace=wrap;html=1;fontSize=32;fillColor=#d5e8d4;strokeColor=#82b366;fontFamily=CMU Serif;strokeWidth=2;" parent="SFHA7BVC_VP3I74WH4uw-843" vertex="1">
          <mxGeometry x="250" y="570" width="110" height="110" as="geometry" />
        </mxCell>
        <mxCell id="SFHA7BVC_VP3I74WH4uw-778" value="2" style="rounded=0;whiteSpace=wrap;html=1;fontSize=16;fillColor=#fff2cc;strokeColor=#d6b656;fontFamily=CMU Serif;strokeWidth=2;" parent="SFHA7BVC_VP3I74WH4uw-843" vertex="1">
          <mxGeometry x="230" y="660" width="20" height="20" as="geometry" />
        </mxCell>
        <mxCell id="SFHA7BVC_VP3I74WH4uw-779" value="25" style="rounded=0;whiteSpace=wrap;html=1;fontSize=32;fillColor=#fff2cc;strokeColor=#d6b656;fillStyle=dots;fontFamily=CMU Serif;strokeWidth=2;" parent="SFHA7BVC_VP3I74WH4uw-843" vertex="1">
          <mxGeometry y="410" width="250" height="250" as="geometry" />
        </mxCell>
        <mxCell id="SFHA7BVC_VP3I74WH4uw-780" value="15" style="rounded=0;whiteSpace=wrap;html=1;fontSize=32;fillColor=#e1d5e7;strokeColor=#9673a6;fontFamily=CMU Serif;strokeWidth=2;" parent="SFHA7BVC_VP3I74WH4uw-843" vertex="1">
          <mxGeometry x="890" y="660" width="150" height="150" as="geometry" />
        </mxCell>
        <mxCell id="SFHA7BVC_VP3I74WH4uw-781" value="24" style="rounded=0;whiteSpace=wrap;html=1;fontSize=32;fillColor=#fff2cc;strokeColor=#d6b656;fontFamily=CMU Serif;strokeWidth=2;" parent="SFHA7BVC_VP3I74WH4uw-843" vertex="1">
          <mxGeometry x="650" y="570" width="240" height="240" as="geometry" />
        </mxCell>
        <mxCell id="SFHA7BVC_VP3I74WH4uw-782" value="30" style="rounded=0;whiteSpace=wrap;html=1;fontSize=32;fontFamily=CMU Serif;strokeWidth=2;" parent="SFHA7BVC_VP3I74WH4uw-843" vertex="1">
          <mxGeometry x="1160" y="480" width="300" height="300" as="geometry" />
        </mxCell>
        <mxCell id="SFHA7BVC_VP3I74WH4uw-783" value="12" style="rounded=0;whiteSpace=wrap;html=1;fontSize=32;fontFamily=CMU Serif;strokeWidth=2;" parent="SFHA7BVC_VP3I74WH4uw-843" vertex="1">
          <mxGeometry x="1040" y="660" width="120" height="120" as="geometry" />
        </mxCell>
        <mxCell id="SFHA7BVC_VP3I74WH4uw-784" value="18" style="rounded=0;whiteSpace=wrap;html=1;fontSize=32;fontFamily=CMU Serif;strokeWidth=2;" parent="SFHA7BVC_VP3I74WH4uw-843" vertex="1">
          <mxGeometry x="980" y="480" width="180" height="180" as="geometry" />
        </mxCell>
        <mxCell id="SFHA7BVC_VP3I74WH4uw-785" value="9" style="rounded=0;whiteSpace=wrap;html=1;fontSize=32;fillColor=#dae8fc;strokeColor=#6c8ebf;fontFamily=CMU Serif;strokeWidth=2;" parent="SFHA7BVC_VP3I74WH4uw-843" vertex="1">
          <mxGeometry x="890" y="570" width="90" height="90" as="geometry" />
        </mxCell>
        <mxCell id="SFHA7BVC_VP3I74WH4uw-786" value="57" style="rounded=0;whiteSpace=wrap;html=1;fontSize=32;fillColor=#d5e8d4;strokeColor=#82b366;fillStyle=dots;fontFamily=CMU Serif;strokeWidth=2;" parent="SFHA7BVC_VP3I74WH4uw-843" vertex="1">
          <mxGeometry x="410" width="570" height="570" as="geometry" />
        </mxCell>
        <mxCell id="SFHA7BVC_VP3I74WH4uw-787" value="16" style="rounded=0;whiteSpace=wrap;html=1;fontSize=32;fillColor=#f8cecc;strokeColor=#b85450;fillStyle=dots;fontFamily=CMU Serif;strokeWidth=2;" parent="SFHA7BVC_VP3I74WH4uw-843" vertex="1">
          <mxGeometry x="250" y="410" width="160" height="160" as="geometry" />
        </mxCell>
        <mxCell id="SFHA7BVC_VP3I74WH4uw-788" value="41" style="rounded=0;whiteSpace=wrap;html=1;fontSize=32;fillColor=#dae8fc;strokeColor=#6c8ebf;fillStyle=dots;fontFamily=CMU Serif;strokeWidth=2;" parent="SFHA7BVC_VP3I74WH4uw-843" vertex="1">
          <mxGeometry width="410" height="410" as="geometry" />
        </mxCell>
        <mxCell id="SFHA7BVC_VP3I74WH4uw-789" value="48" style="rounded=0;whiteSpace=wrap;html=1;fontSize=32;fontFamily=CMU Serif;strokeWidth=2;" parent="SFHA7BVC_VP3I74WH4uw-843" vertex="1">
          <mxGeometry x="980" width="480" height="480" as="geometry" />
        </mxCell>
        <mxCell id="SFHA7BVC_VP3I74WH4uw-844" value="" style="group;flipV=1;" parent="1" vertex="1" connectable="0">
          <mxGeometry x="70" y="11420" width="1460" height="1260" as="geometry" />
        </mxCell>
        <mxCell id="SFHA7BVC_VP3I74WH4uw-791" value="40" style="rounded=0;whiteSpace=wrap;html=1;fontSize=32;" parent="SFHA7BVC_VP3I74WH4uw-844" vertex="1">
          <mxGeometry y="860" width="400" height="400" as="geometry" />
        </mxCell>
        <mxCell id="SFHA7BVC_VP3I74WH4uw-792" value="28" style="rounded=0;whiteSpace=wrap;html=1;fontSize=32;" parent="SFHA7BVC_VP3I74WH4uw-844" vertex="1">
          <mxGeometry x="400" y="980" width="280" height="280" as="geometry" />
        </mxCell>
        <mxCell id="SFHA7BVC_VP3I74WH4uw-793" value="20" style="rounded=0;whiteSpace=wrap;html=1;fontSize=32;" parent="SFHA7BVC_VP3I74WH4uw-844" vertex="1">
          <mxGeometry x="680" y="1060" width="200" height="200" as="geometry" />
        </mxCell>
        <mxCell id="SFHA7BVC_VP3I74WH4uw-794" value="23" style="rounded=0;whiteSpace=wrap;html=1;fontSize=32;" parent="SFHA7BVC_VP3I74WH4uw-844" vertex="1">
          <mxGeometry x="880" y="1030" width="230" height="230" as="geometry" />
        </mxCell>
        <mxCell id="SFHA7BVC_VP3I74WH4uw-795" value="17" style="rounded=0;whiteSpace=wrap;html=1;fontSize=32;" parent="SFHA7BVC_VP3I74WH4uw-844" vertex="1">
          <mxGeometry x="680" y="890" width="170" height="170" as="geometry" />
        </mxCell>
        <mxCell id="SFHA7BVC_VP3I74WH4uw-796" value="3" style="rounded=0;whiteSpace=wrap;html=1;fontSize=32;" parent="SFHA7BVC_VP3I74WH4uw-844" vertex="1">
          <mxGeometry x="850" y="1030" width="30" height="30" as="geometry" />
        </mxCell>
        <mxCell id="SFHA7BVC_VP3I74WH4uw-797" value="19" style="rounded=0;whiteSpace=wrap;html=1;fontSize=32;" parent="SFHA7BVC_VP3I74WH4uw-844" vertex="1">
          <mxGeometry x="400" y="790" width="190" height="190" as="geometry" />
        </mxCell>
        <mxCell id="SFHA7BVC_VP3I74WH4uw-798" value="9" style="rounded=0;whiteSpace=wrap;html=1;fontSize=32;" parent="SFHA7BVC_VP3I74WH4uw-844" vertex="1">
          <mxGeometry x="590" y="890" width="90" height="90" as="geometry" />
        </mxCell>
        <mxCell id="SFHA7BVC_VP3I74WH4uw-799" value="35" style="rounded=0;whiteSpace=wrap;html=1;fontSize=32;" parent="SFHA7BVC_VP3I74WH4uw-844" vertex="1">
          <mxGeometry x="1110" y="910" width="350" height="350" as="geometry" />
        </mxCell>
        <mxCell id="SFHA7BVC_VP3I74WH4uw-800" value="14" style="rounded=0;whiteSpace=wrap;html=1;fontSize=32;" parent="SFHA7BVC_VP3I74WH4uw-844" vertex="1">
          <mxGeometry x="850" y="890" width="140" height="140" as="geometry" />
        </mxCell>
        <mxCell id="SFHA7BVC_VP3I74WH4uw-801" value="12" style="rounded=0;whiteSpace=wrap;html=1;fontSize=32;" parent="SFHA7BVC_VP3I74WH4uw-844" vertex="1">
          <mxGeometry x="990" y="910" width="120" height="120" as="geometry" />
        </mxCell>
        <mxCell id="SFHA7BVC_VP3I74WH4uw-802" value="33" style="rounded=0;whiteSpace=wrap;html=1;fontSize=32;" parent="SFHA7BVC_VP3I74WH4uw-844" vertex="1">
          <mxGeometry y="530" width="330" height="330" as="geometry" />
        </mxCell>
        <mxCell id="SFHA7BVC_VP3I74WH4uw-803" value="7" style="rounded=0;whiteSpace=wrap;html=1;fontSize=32;" parent="SFHA7BVC_VP3I74WH4uw-844" vertex="1">
          <mxGeometry x="330" y="790" width="70" height="70" as="geometry" />
        </mxCell>
        <mxCell id="SFHA7BVC_VP3I74WH4uw-804" value="2" style="rounded=0;whiteSpace=wrap;html=1;fontSize=32;" parent="SFHA7BVC_VP3I74WH4uw-844" vertex="1">
          <mxGeometry x="990" y="890" width="20" height="20" as="geometry" />
        </mxCell>
        <mxCell id="SFHA7BVC_VP3I74WH4uw-805" value="45" style="rounded=0;whiteSpace=wrap;html=1;fontSize=32;" parent="SFHA7BVC_VP3I74WH4uw-844" vertex="1">
          <mxGeometry x="1010" y="460" width="450" height="450" as="geometry" />
        </mxCell>
        <mxCell id="SFHA7BVC_VP3I74WH4uw-806" value="42" style="rounded=0;whiteSpace=wrap;html=1;fontSize=32;" parent="SFHA7BVC_VP3I74WH4uw-844" vertex="1">
          <mxGeometry x="590" y="470" width="420" height="420" as="geometry" />
        </mxCell>
        <mxCell id="SFHA7BVC_VP3I74WH4uw-807" value="26" style="rounded=0;whiteSpace=wrap;html=1;fontSize=32;" parent="SFHA7BVC_VP3I74WH4uw-844" vertex="1">
          <mxGeometry x="330" y="530" width="260" height="260" as="geometry" />
        </mxCell>
        <mxCell id="SFHA7BVC_VP3I74WH4uw-808" value="53" style="rounded=0;whiteSpace=wrap;html=1;fontSize=32;" parent="SFHA7BVC_VP3I74WH4uw-844" vertex="1">
          <mxGeometry width="530" height="530" as="geometry" />
        </mxCell>
        <mxCell id="SFHA7BVC_VP3I74WH4uw-809" value="6" style="rounded=0;whiteSpace=wrap;html=1;fontSize=32;" parent="SFHA7BVC_VP3I74WH4uw-844" vertex="1">
          <mxGeometry x="530" y="470" width="60" height="60" as="geometry" />
        </mxCell>
        <mxCell id="SFHA7BVC_VP3I74WH4uw-810" value="47" style="rounded=0;whiteSpace=wrap;html=1;fontSize=32;" parent="SFHA7BVC_VP3I74WH4uw-844" vertex="1">
          <mxGeometry x="530" width="470" height="470" as="geometry" />
        </mxCell>
        <mxCell id="SFHA7BVC_VP3I74WH4uw-811" value="1" style="rounded=0;whiteSpace=wrap;html=1;fontSize=32;" parent="SFHA7BVC_VP3I74WH4uw-844" vertex="1">
          <mxGeometry x="1000" y="460" width="10" height="10" as="geometry" />
        </mxCell>
        <mxCell id="SFHA7BVC_VP3I74WH4uw-812" value="46" style="rounded=0;whiteSpace=wrap;html=1;fontSize=32;" parent="SFHA7BVC_VP3I74WH4uw-844" vertex="1">
          <mxGeometry x="1000" width="460" height="460" as="geometry" />
        </mxCell>
        <mxCell id="JE0jcBHukDbrA2ISheRd-1" value="" style="group;flipV=1;" vertex="1" connectable="0" parent="1">
          <mxGeometry x="1650" y="9870" width="1460" height="1200" as="geometry" />
        </mxCell>
        <mxCell id="SFHA7BVC_VP3I74WH4uw-821" value="42" style="rounded=0;whiteSpace=wrap;html=1;fontSize=32;" parent="JE0jcBHukDbrA2ISheRd-1" vertex="1">
          <mxGeometry y="780" width="420" height="420" as="geometry" />
        </mxCell>
        <mxCell id="SFHA7BVC_VP3I74WH4uw-822" value="39" style="rounded=0;whiteSpace=wrap;html=1;fontSize=32;fillColor=#ffe6cc;strokeColor=#d79b00;" parent="JE0jcBHukDbrA2ISheRd-1" vertex="1">
          <mxGeometry x="420" y="810" width="390" height="390" as="geometry" />
        </mxCell>
        <mxCell id="SFHA7BVC_VP3I74WH4uw-823" value="34" style="rounded=0;whiteSpace=wrap;html=1;fontSize=32;fillColor=#f8cecc;strokeColor=#b85450;" parent="JE0jcBHukDbrA2ISheRd-1" vertex="1">
          <mxGeometry x="810" y="860" width="340" height="340" as="geometry" />
        </mxCell>
        <mxCell id="SFHA7BVC_VP3I74WH4uw-824" value="31" style="rounded=0;whiteSpace=wrap;html=1;fontSize=32;fillColor=#fff2cc;strokeColor=#d6b656;" parent="JE0jcBHukDbrA2ISheRd-1" vertex="1">
          <mxGeometry x="1150" y="890" width="310" height="310" as="geometry" />
        </mxCell>
        <mxCell id="SFHA7BVC_VP3I74WH4uw-825" value="8" style="rounded=0;whiteSpace=wrap;html=1;fontSize=32;fillColor=#f8cecc;strokeColor=#b85450;" parent="JE0jcBHukDbrA2ISheRd-1" vertex="1">
          <mxGeometry x="1150" y="810" width="80" height="80" as="geometry" />
        </mxCell>
        <mxCell id="SFHA7BVC_VP3I74WH4uw-826" value="23" style="rounded=0;whiteSpace=wrap;html=1;fontSize=32;fillColor=#dae8fc;strokeColor=#6c8ebf;" parent="JE0jcBHukDbrA2ISheRd-1" vertex="1">
          <mxGeometry x="1230" y="660" width="230" height="230" as="geometry" />
        </mxCell>
        <mxCell id="SFHA7BVC_VP3I74WH4uw-827" value="29" style="rounded=0;whiteSpace=wrap;html=1;fontSize=32;fillColor=#dae8fc;strokeColor=#6c8ebf;" parent="JE0jcBHukDbrA2ISheRd-1" vertex="1">
          <mxGeometry x="810" y="570" width="290" height="290" as="geometry" />
        </mxCell>
        <mxCell id="SFHA7BVC_VP3I74WH4uw-828" value="5" style="rounded=0;whiteSpace=wrap;html=1;fontSize=32;fillColor=#e1d5e7;strokeColor=#9673a6;" parent="JE0jcBHukDbrA2ISheRd-1" vertex="1">
          <mxGeometry x="1100" y="810" width="50" height="50" as="geometry" />
        </mxCell>
        <mxCell id="SFHA7BVC_VP3I74WH4uw-829" value="13" style="rounded=0;whiteSpace=wrap;html=1;fontSize=32;fillColor=#f8cecc;strokeColor=#b85450;" parent="JE0jcBHukDbrA2ISheRd-1" vertex="1">
          <mxGeometry x="1100" y="680" width="130" height="130" as="geometry" />
        </mxCell>
        <mxCell id="SFHA7BVC_VP3I74WH4uw-830" value="11" style="rounded=0;whiteSpace=wrap;html=1;fontSize=32;fillColor=#d5e8d4;strokeColor=#82b366;" parent="JE0jcBHukDbrA2ISheRd-1" vertex="1">
          <mxGeometry x="1100" y="570" width="110" height="110" as="geometry" />
        </mxCell>
        <mxCell id="SFHA7BVC_VP3I74WH4uw-831" value="2" style="rounded=0;whiteSpace=wrap;html=1;fontSize=32;fillColor=#fff2cc;strokeColor=#d6b656;" parent="JE0jcBHukDbrA2ISheRd-1" vertex="1">
          <mxGeometry x="1210" y="660" width="20" height="20" as="geometry" />
        </mxCell>
        <mxCell id="SFHA7BVC_VP3I74WH4uw-832" value="25" style="rounded=0;whiteSpace=wrap;html=1;fontSize=32;fillColor=#fff2cc;strokeColor=#d6b656;fillStyle=dots;" parent="JE0jcBHukDbrA2ISheRd-1" vertex="1">
          <mxGeometry x="1210" y="410" width="250" height="250" as="geometry" />
        </mxCell>
        <mxCell id="SFHA7BVC_VP3I74WH4uw-833" value="15" style="rounded=0;whiteSpace=wrap;html=1;fontSize=32;fillColor=#e1d5e7;strokeColor=#9673a6;" parent="JE0jcBHukDbrA2ISheRd-1" vertex="1">
          <mxGeometry x="420" y="660" width="150" height="150" as="geometry" />
        </mxCell>
        <mxCell id="SFHA7BVC_VP3I74WH4uw-834" value="24" style="rounded=0;whiteSpace=wrap;html=1;fontSize=32;fillColor=#fff2cc;strokeColor=#d6b656;" parent="JE0jcBHukDbrA2ISheRd-1" vertex="1">
          <mxGeometry x="570" y="570" width="240" height="240" as="geometry" />
        </mxCell>
        <mxCell id="SFHA7BVC_VP3I74WH4uw-835" value="30" style="rounded=0;whiteSpace=wrap;html=1;fontSize=32;" parent="JE0jcBHukDbrA2ISheRd-1" vertex="1">
          <mxGeometry y="480" width="300" height="300" as="geometry" />
        </mxCell>
        <mxCell id="SFHA7BVC_VP3I74WH4uw-836" value="12" style="rounded=0;whiteSpace=wrap;html=1;fontSize=32;" parent="JE0jcBHukDbrA2ISheRd-1" vertex="1">
          <mxGeometry x="300" y="660" width="120" height="120" as="geometry" />
        </mxCell>
        <mxCell id="SFHA7BVC_VP3I74WH4uw-837" value="18" style="rounded=0;whiteSpace=wrap;html=1;fontSize=32;" parent="JE0jcBHukDbrA2ISheRd-1" vertex="1">
          <mxGeometry x="300" y="480" width="180" height="180" as="geometry" />
        </mxCell>
        <mxCell id="SFHA7BVC_VP3I74WH4uw-838" value="9" style="rounded=0;whiteSpace=wrap;html=1;fontSize=32;fillColor=#dae8fc;strokeColor=#6c8ebf;" parent="JE0jcBHukDbrA2ISheRd-1" vertex="1">
          <mxGeometry x="480" y="570" width="90" height="90" as="geometry" />
        </mxCell>
        <mxCell id="SFHA7BVC_VP3I74WH4uw-839" value="57" style="rounded=0;whiteSpace=wrap;html=1;fontSize=32;fillColor=#d5e8d4;strokeColor=#82b366;fillStyle=dots;" parent="JE0jcBHukDbrA2ISheRd-1" vertex="1">
          <mxGeometry x="480" width="570" height="570" as="geometry" />
        </mxCell>
        <mxCell id="SFHA7BVC_VP3I74WH4uw-840" value="16" style="rounded=0;whiteSpace=wrap;html=1;fontSize=32;fillColor=#f8cecc;strokeColor=#b85450;fillStyle=dots;" parent="JE0jcBHukDbrA2ISheRd-1" vertex="1">
          <mxGeometry x="1050" y="410" width="160" height="160" as="geometry" />
        </mxCell>
        <mxCell id="SFHA7BVC_VP3I74WH4uw-841" value="41" style="rounded=0;whiteSpace=wrap;html=1;fontSize=32;fillColor=#dae8fc;strokeColor=#6c8ebf;fillStyle=dots;" parent="JE0jcBHukDbrA2ISheRd-1" vertex="1">
          <mxGeometry x="1050" width="410" height="410" as="geometry" />
        </mxCell>
        <mxCell id="SFHA7BVC_VP3I74WH4uw-842" value="48" style="rounded=0;whiteSpace=wrap;html=1;fontSize=32;" parent="JE0jcBHukDbrA2ISheRd-1" vertex="1">
          <mxGeometry width="480" height="480" as="geometry" />
        </mxCell>
        <mxCell id="JE0jcBHukDbrA2ISheRd-2" value="" style="group" vertex="1" connectable="0" parent="1">
          <mxGeometry x="120" y="8470" width="1460" height="1200" as="geometry" />
        </mxCell>
        <mxCell id="SFHA7BVC_VP3I74WH4uw-819" value="" style="group;flipV=1;container=0;fontFamily=CMU Serif;strokeWidth=2;" parent="JE0jcBHukDbrA2ISheRd-2" vertex="1" connectable="0">
          <mxGeometry width="1460" height="1200" as="geometry" />
        </mxCell>
        <mxCell id="SFHA7BVC_VP3I74WH4uw-745" value="34" style="rounded=0;whiteSpace=wrap;html=1;fontSize=32;fillColor=#f8cecc;fillStyle=solid;strokeColor=#b85450;fontFamily=CMU Serif;strokeWidth=2;" parent="JE0jcBHukDbrA2ISheRd-2" vertex="1">
          <mxGeometry y="860" width="340" height="340" as="geometry" />
        </mxCell>
        <mxCell id="SFHA7BVC_VP3I74WH4uw-746" value="39" style="rounded=0;whiteSpace=wrap;html=1;fontSize=32;fillStyle=solid;fillColor=#ffe6cc;strokeColor=#d79b00;fontFamily=CMU Serif;strokeWidth=2;" parent="JE0jcBHukDbrA2ISheRd-2" vertex="1">
          <mxGeometry x="340" y="810" width="390" height="390" as="geometry" />
        </mxCell>
        <mxCell id="SFHA7BVC_VP3I74WH4uw-747" value="29" style="rounded=0;whiteSpace=wrap;html=1;fontSize=32;fillColor=#dae8fc;strokeColor=#6c8ebf;fontFamily=CMU Serif;strokeWidth=2;" parent="JE0jcBHukDbrA2ISheRd-2" vertex="1">
          <mxGeometry y="570" width="290" height="290" as="geometry" />
        </mxCell>
        <mxCell id="SFHA7BVC_VP3I74WH4uw-748" value="5" style="rounded=0;whiteSpace=wrap;html=1;fontSize=32;fillColor=#e1d5e7;strokeColor=#9673a6;fontFamily=CMU Serif;strokeWidth=2;" parent="JE0jcBHukDbrA2ISheRd-2" vertex="1">
          <mxGeometry x="290" y="810" width="50" height="50" as="geometry" />
        </mxCell>
        <mxCell id="SFHA7BVC_VP3I74WH4uw-749" value="31" style="rounded=0;whiteSpace=wrap;html=1;fontSize=32;fillColor=#fff2cc;strokeColor=#d6b656;fontFamily=CMU Serif;strokeWidth=2;" parent="JE0jcBHukDbrA2ISheRd-2" vertex="1">
          <mxGeometry x="730" y="890" width="310" height="310" as="geometry" />
        </mxCell>
        <mxCell id="SFHA7BVC_VP3I74WH4uw-750" value="42" style="rounded=0;whiteSpace=wrap;html=1;fontSize=32;fontFamily=CMU Serif;strokeWidth=2;" parent="JE0jcBHukDbrA2ISheRd-2" vertex="1">
          <mxGeometry x="1040" y="780" width="420" height="420" as="geometry" />
        </mxCell>
        <mxCell id="SFHA7BVC_VP3I74WH4uw-751" value="8" style="rounded=0;whiteSpace=wrap;html=1;fontSize=32;fillColor=#f8cecc;strokeColor=#b85450;fontFamily=CMU Serif;strokeWidth=2;" parent="JE0jcBHukDbrA2ISheRd-2" vertex="1">
          <mxGeometry x="730" y="810" width="80" height="80" as="geometry" />
        </mxCell>
        <mxCell id="SFHA7BVC_VP3I74WH4uw-752" value="23" style="rounded=0;whiteSpace=wrap;html=1;fontSize=32;fillColor=#dae8fc;strokeColor=#6c8ebf;fontFamily=CMU Serif;strokeWidth=2;" parent="JE0jcBHukDbrA2ISheRd-2" vertex="1">
          <mxGeometry x="810" y="660" width="230" height="230" as="geometry" />
        </mxCell>
        <mxCell id="SFHA7BVC_VP3I74WH4uw-753" value="12" style="rounded=0;whiteSpace=wrap;html=1;fontSize=32;fontFamily=CMU Serif;strokeWidth=2;" parent="JE0jcBHukDbrA2ISheRd-2" vertex="1">
          <mxGeometry x="1040" y="660" width="120" height="120" as="geometry" />
        </mxCell>
        <mxCell id="SFHA7BVC_VP3I74WH4uw-754" value="30" style="rounded=0;whiteSpace=wrap;html=1;fontSize=32;fontFamily=CMU Serif;strokeWidth=2;" parent="JE0jcBHukDbrA2ISheRd-2" vertex="1">
          <mxGeometry x="1160" y="480" width="300" height="300" as="geometry" />
        </mxCell>
        <mxCell id="SFHA7BVC_VP3I74WH4uw-755" value="24" style="rounded=0;whiteSpace=wrap;html=1;fontSize=32;fillColor=#fff2cc;strokeColor=#d6b656;fontFamily=CMU Serif;strokeWidth=2;" parent="JE0jcBHukDbrA2ISheRd-2" vertex="1">
          <mxGeometry x="290" y="570" width="240" height="240" as="geometry" />
        </mxCell>
        <mxCell id="SFHA7BVC_VP3I74WH4uw-756" value="13" style="rounded=0;whiteSpace=wrap;html=1;fontSize=32;fillColor=#f8cecc;strokeColor=#b85450;fontFamily=CMU Serif;strokeWidth=2;" parent="JE0jcBHukDbrA2ISheRd-2" vertex="1">
          <mxGeometry x="530" y="680" width="130" height="130" as="geometry" />
        </mxCell>
        <mxCell id="SFHA7BVC_VP3I74WH4uw-757" value="15" style="rounded=0;whiteSpace=wrap;html=1;fontSize=32;fillColor=#e1d5e7;strokeColor=#9673a6;fontFamily=CMU Serif;strokeWidth=2;" parent="JE0jcBHukDbrA2ISheRd-2" vertex="1">
          <mxGeometry x="660" y="660" width="150" height="150" as="geometry" />
        </mxCell>
        <mxCell id="SFHA7BVC_VP3I74WH4uw-758" value="11" style="rounded=0;whiteSpace=wrap;html=1;fontSize=32;fillColor=#d5e8d4;strokeColor=#82b366;fontFamily=CMU Serif;strokeWidth=2;" parent="JE0jcBHukDbrA2ISheRd-2" vertex="1">
          <mxGeometry x="530" y="570" width="110" height="110" as="geometry" />
        </mxCell>
        <mxCell id="SFHA7BVC_VP3I74WH4uw-759" value="2" style="rounded=0;whiteSpace=wrap;html=1;fontSize=16;fillColor=#fff2cc;strokeColor=#d6b656;fontFamily=CMU Serif;strokeWidth=2;" parent="JE0jcBHukDbrA2ISheRd-2" vertex="1">
          <mxGeometry x="640" y="660" width="20" height="20" as="geometry" />
        </mxCell>
        <mxCell id="SFHA7BVC_VP3I74WH4uw-760" value="9" style="rounded=0;whiteSpace=wrap;html=1;fontSize=32;fillColor=#dae8fc;strokeColor=#6c8ebf;fontFamily=CMU Serif;strokeWidth=2;" parent="JE0jcBHukDbrA2ISheRd-2" vertex="1">
          <mxGeometry x="640" y="570" width="90" height="90" as="geometry" />
        </mxCell>
        <mxCell id="SFHA7BVC_VP3I74WH4uw-761" value="25" style="rounded=0;whiteSpace=wrap;html=1;fontSize=32;fillColor=#fff2cc;strokeColor=#d6b656;fillStyle=dots;fontFamily=CMU Serif;strokeWidth=2;" parent="JE0jcBHukDbrA2ISheRd-2" vertex="1">
          <mxGeometry x="730" y="410" width="250" height="250" as="geometry" />
        </mxCell>
        <mxCell id="SFHA7BVC_VP3I74WH4uw-762" value="18" style="rounded=0;whiteSpace=wrap;html=1;fontSize=32;fontFamily=CMU Serif;strokeWidth=2;" parent="JE0jcBHukDbrA2ISheRd-2" vertex="1">
          <mxGeometry x="980" y="480" width="180" height="180" as="geometry" />
        </mxCell>
        <mxCell id="SFHA7BVC_VP3I74WH4uw-763" value="48" style="rounded=0;whiteSpace=wrap;html=1;fontSize=32;fontFamily=CMU Serif;strokeWidth=2;" parent="JE0jcBHukDbrA2ISheRd-2" vertex="1">
          <mxGeometry x="980" width="480" height="480" as="geometry" />
        </mxCell>
        <mxCell id="SFHA7BVC_VP3I74WH4uw-764" value="57" style="rounded=0;whiteSpace=wrap;html=1;fontSize=32;fillColor=#d5e8d4;strokeColor=#82b366;fillStyle=dots;fontFamily=CMU Serif;strokeWidth=2;" parent="JE0jcBHukDbrA2ISheRd-2" vertex="1">
          <mxGeometry width="570" height="570" as="geometry" />
        </mxCell>
        <mxCell id="SFHA7BVC_VP3I74WH4uw-765" value="16" style="rounded=0;whiteSpace=wrap;html=1;fontSize=32;fillColor=#f8cecc;strokeColor=#b85450;fillStyle=dots;fontFamily=CMU Serif;strokeWidth=2;" parent="JE0jcBHukDbrA2ISheRd-2" vertex="1">
          <mxGeometry x="570" y="410" width="160" height="160" as="geometry" />
        </mxCell>
        <mxCell id="SFHA7BVC_VP3I74WH4uw-766" value="41" style="rounded=0;whiteSpace=wrap;html=1;fontSize=32;fillColor=#dae8fc;strokeColor=#6c8ebf;fillStyle=dots;fontFamily=CMU Serif;strokeWidth=2;" parent="JE0jcBHukDbrA2ISheRd-2" vertex="1">
          <mxGeometry x="570" width="410" height="410" as="geometry" />
        </mxCell>
        <mxCell id="JE0jcBHukDbrA2ISheRd-3" value="" style="group" vertex="1" connectable="0" parent="1">
          <mxGeometry x="120" y="7140" width="1460" height="1200" as="geometry" />
        </mxCell>
        <mxCell id="SFHA7BVC_VP3I74WH4uw-722" value="29" style="rounded=0;whiteSpace=wrap;html=1;fontSize=32;fillColor=#dae8fc;strokeColor=#6c8ebf;fontFamily=CMU Serif;strokeWidth=2;" parent="JE0jcBHukDbrA2ISheRd-3" vertex="1">
          <mxGeometry y="910" width="290" height="290" as="geometry" />
        </mxCell>
        <mxCell id="SFHA7BVC_VP3I74WH4uw-723" value="24" style="rounded=0;whiteSpace=wrap;html=1;fontSize=32;fillColor=#fff2cc;strokeColor=#d6b656;fontFamily=CMU Serif;strokeWidth=2;" parent="JE0jcBHukDbrA2ISheRd-3" vertex="1">
          <mxGeometry x="290" y="960" width="240" height="240" as="geometry" />
        </mxCell>
        <mxCell id="SFHA7BVC_VP3I74WH4uw-724" value="13" style="rounded=0;whiteSpace=wrap;html=1;fontSize=32;fillColor=#f8cecc;strokeColor=#b85450;fontFamily=CMU Serif;strokeWidth=2;" parent="JE0jcBHukDbrA2ISheRd-3" vertex="1">
          <mxGeometry x="530" y="1070" width="130" height="130" as="geometry" />
        </mxCell>
        <mxCell id="SFHA7BVC_VP3I74WH4uw-725" value="15" style="rounded=0;whiteSpace=wrap;html=1;fontSize=32;fillColor=#e1d5e7;strokeColor=#9673a6;fontFamily=CMU Serif;strokeWidth=2;" parent="JE0jcBHukDbrA2ISheRd-3" vertex="1">
          <mxGeometry x="660" y="1050" width="150" height="150" as="geometry" />
        </mxCell>
        <mxCell id="SFHA7BVC_VP3I74WH4uw-726" value="11" style="rounded=0;whiteSpace=wrap;html=1;fontSize=32;fillColor=#d5e8d4;strokeColor=#82b366;fontFamily=CMU Serif;strokeWidth=2;" parent="JE0jcBHukDbrA2ISheRd-3" vertex="1">
          <mxGeometry x="530" y="960" width="110" height="110" as="geometry" />
        </mxCell>
        <mxCell id="SFHA7BVC_VP3I74WH4uw-727" value="2" style="rounded=0;whiteSpace=wrap;html=1;fontSize=16;fillColor=#fff2cc;strokeColor=#d6b656;fontFamily=CMU Serif;strokeWidth=2;" parent="JE0jcBHukDbrA2ISheRd-3" vertex="1">
          <mxGeometry x="640" y="1050" width="20" height="20" as="geometry" />
        </mxCell>
        <mxCell id="SFHA7BVC_VP3I74WH4uw-728" value="23" style="rounded=0;whiteSpace=wrap;html=1;fontSize=32;fillColor=#dae8fc;strokeColor=#6c8ebf;fontFamily=CMU Serif;strokeWidth=2;" parent="JE0jcBHukDbrA2ISheRd-3" vertex="1">
          <mxGeometry x="810" y="970" width="230" height="230" as="geometry" />
        </mxCell>
        <mxCell id="SFHA7BVC_VP3I74WH4uw-729" value="9" style="rounded=0;whiteSpace=wrap;html=1;fontSize=32;fillColor=#dae8fc;strokeColor=#6c8ebf;fontFamily=CMU Serif;strokeWidth=2;" parent="JE0jcBHukDbrA2ISheRd-3" vertex="1">
          <mxGeometry x="640" y="960" width="90" height="90" as="geometry" />
        </mxCell>
        <mxCell id="SFHA7BVC_VP3I74WH4uw-730" value="8" style="rounded=0;whiteSpace=wrap;html=1;fontSize=32;fillColor=#f8cecc;strokeColor=#b85450;fontFamily=CMU Serif;strokeWidth=2;" parent="JE0jcBHukDbrA2ISheRd-3" vertex="1">
          <mxGeometry x="730" y="970" width="80" height="80" as="geometry" />
        </mxCell>
        <mxCell id="SFHA7BVC_VP3I74WH4uw-731" value="42" style="rounded=0;whiteSpace=wrap;html=1;fontSize=32;fontFamily=CMU Serif;strokeWidth=2;" parent="JE0jcBHukDbrA2ISheRd-3" vertex="1">
          <mxGeometry x="1040" y="780" width="420" height="420" as="geometry" />
        </mxCell>
        <mxCell id="SFHA7BVC_VP3I74WH4uw-732" value="31" style="rounded=0;whiteSpace=wrap;html=1;fontSize=32;fillColor=#fff2cc;strokeColor=#d6b656;fontFamily=CMU Serif;strokeWidth=2;" parent="JE0jcBHukDbrA2ISheRd-3" vertex="1">
          <mxGeometry x="730" y="660" width="310" height="310" as="geometry" />
        </mxCell>
        <mxCell id="SFHA7BVC_VP3I74WH4uw-733" value="12" style="rounded=0;whiteSpace=wrap;html=1;fontSize=32;fontFamily=CMU Serif;strokeWidth=2;" parent="JE0jcBHukDbrA2ISheRd-3" vertex="1">
          <mxGeometry x="1040" y="660" width="120" height="120" as="geometry" />
        </mxCell>
        <mxCell id="SFHA7BVC_VP3I74WH4uw-734" value="30" style="rounded=0;whiteSpace=wrap;html=1;fontSize=32;fontFamily=CMU Serif;strokeWidth=2;" parent="JE0jcBHukDbrA2ISheRd-3" vertex="1">
          <mxGeometry x="1160" y="480" width="300" height="300" as="geometry" />
        </mxCell>
        <mxCell id="SFHA7BVC_VP3I74WH4uw-735" value="5" style="rounded=0;whiteSpace=wrap;html=1;fontSize=32;fillColor=#e1d5e7;strokeColor=#9673a6;fontFamily=CMU Serif;strokeWidth=2;" parent="JE0jcBHukDbrA2ISheRd-3" vertex="1">
          <mxGeometry x="290" y="910" width="50" height="50" as="geometry" />
        </mxCell>
        <mxCell id="SFHA7BVC_VP3I74WH4uw-736" value="39" style="rounded=0;whiteSpace=wrap;html=1;fontSize=32;fillStyle=solid;fillColor=#ffe6cc;strokeColor=#d79b00;fontFamily=CMU Serif;strokeWidth=2;" parent="JE0jcBHukDbrA2ISheRd-3" vertex="1">
          <mxGeometry x="340" y="570" width="390" height="390" as="geometry" />
        </mxCell>
        <mxCell id="SFHA7BVC_VP3I74WH4uw-737" value="34" style="rounded=0;whiteSpace=wrap;html=1;fontSize=32;fillStyle=solid;fillColor=#f8cecc;strokeColor=#b85450;fontFamily=CMU Serif;strokeWidth=2;" parent="JE0jcBHukDbrA2ISheRd-3" vertex="1">
          <mxGeometry y="570" width="340" height="340" as="geometry" />
        </mxCell>
        <mxCell id="SFHA7BVC_VP3I74WH4uw-738" value="25" style="rounded=0;whiteSpace=wrap;html=1;fontSize=32;fillColor=#fff2cc;strokeColor=#d6b656;fillStyle=dots;fontFamily=CMU Serif;strokeWidth=2;" parent="JE0jcBHukDbrA2ISheRd-3" vertex="1">
          <mxGeometry x="730" y="410" width="250" height="250" as="geometry" />
        </mxCell>
        <mxCell id="SFHA7BVC_VP3I74WH4uw-739" value="18" style="rounded=0;whiteSpace=wrap;html=1;fontSize=32;fontFamily=CMU Serif;strokeWidth=2;" parent="JE0jcBHukDbrA2ISheRd-3" vertex="1">
          <mxGeometry x="980" y="480" width="180" height="180" as="geometry" />
        </mxCell>
        <mxCell id="SFHA7BVC_VP3I74WH4uw-740" value="48" style="rounded=0;whiteSpace=wrap;html=1;fontSize=32;fontFamily=CMU Serif;strokeWidth=2;" parent="JE0jcBHukDbrA2ISheRd-3" vertex="1">
          <mxGeometry x="980" width="480" height="480" as="geometry" />
        </mxCell>
        <mxCell id="SFHA7BVC_VP3I74WH4uw-741" value="57" style="rounded=0;whiteSpace=wrap;html=1;fontSize=32;fillColor=#d5e8d4;strokeColor=#82b366;fillStyle=dots;fontFamily=CMU Serif;strokeWidth=2;" parent="JE0jcBHukDbrA2ISheRd-3" vertex="1">
          <mxGeometry width="570" height="570" as="geometry" />
        </mxCell>
        <mxCell id="SFHA7BVC_VP3I74WH4uw-742" value="16" style="rounded=0;whiteSpace=wrap;html=1;fontSize=32;fillColor=#f8cecc;strokeColor=#b85450;fillStyle=dots;fontFamily=CMU Serif;strokeWidth=2;" parent="JE0jcBHukDbrA2ISheRd-3" vertex="1">
          <mxGeometry x="570" y="410" width="160" height="160" as="geometry" />
        </mxCell>
        <mxCell id="SFHA7BVC_VP3I74WH4uw-743" value="41" style="rounded=0;whiteSpace=wrap;html=1;fontSize=32;fillColor=#dae8fc;strokeColor=#6c8ebf;fillStyle=dots;fontFamily=CMU Serif;strokeWidth=2;" parent="JE0jcBHukDbrA2ISheRd-3" vertex="1">
          <mxGeometry x="570" width="410" height="410" as="geometry" />
        </mxCell>
      </root>
    </mxGraphModel>
  </diagram>
</mxfile>
